<svg xmlns="http://www.w3.org/2000/svg" viewBox="0 0 788.77 196.56"><defs><style>.cls-1{fill:#1d1d1b;}</style></defs><g id="Layer_2" data-name="Layer 2"><g id="Layer_1-2" data-name="Layer 1"><path class="cls-1" d="M168.52,91.27H152.15V93.6h1.28a4.71,4.71,0,0,1,3.64,1.1,3.92,3.92,0,0,1,1.37,3.46V119a13.43,13.43,0,0,1-3.87,9.64,13.58,13.58,0,0,1-9.94,3.79c-9.09-.12-12.33-6.32-12.33-12.08v-24a2.36,2.36,0,0,1,.45-1.63,2.94,2.94,0,0,1,2.52-1l2.74-.13V91.27h-18.8V93.6l2.36.06c1.28.11,2.41.27,3,1.06a2.08,2.08,0,0,1,.44,1.51v24.14a14.46,14.46,0,0,0,4.16,10.51c3.37,3.35,8.64,5.18,14.85,5.14,10.54-.05,18.48-7.39,18.48-17.06V98.28a5.39,5.39,0,0,1,1.2-3.42c1-1.06,2.17-1.26,4-1.26h1.09V91.27Z"/><path class="cls-1" d="M225.8,91.27H208.92V93.6H211c2.23,0,3.74.67,4.75,2.1a4.24,4.24,0,0,1,.71,2.82v25.92L186,91.27H173.28V93.6h.31a8.38,8.38,0,0,1,4.6,1.14,7.63,7.63,0,0,1,3.05,2.82v30.27a4.71,4.71,0,0,1-1,3.5,4.83,4.83,0,0,1-4,1.77H175v2.16h17.14V133.1h-1.67c-1.69,0-4-.61-5.06-2.32a4.43,4.43,0,0,1-.72-2.77V99.74l32.55,35.52H220V98.63a4.62,4.62,0,0,1,1-3.44,4.76,4.76,0,0,1,3.93-1.59h1.28V91.27Z"/><path class="cls-1" d="M250.78,91.27H232.29V93.6l2.3.06c1.28.11,2.4.27,3,1.06a2,2,0,0,1,.45,1.51v33.89a2.17,2.17,0,0,1-.55,1.78,2.94,2.94,0,0,1-2.29.88l-.34,0-2.6.33v2.12H251.1v-2.11l-1.62-.28-1.12-.14a4.31,4.31,0,0,1-2.21-.63,2.2,2.2,0,0,1-.83-1.92V96.34a2.36,2.36,0,0,1,.45-1.63,2.93,2.93,0,0,1,2.52-1l2.81-.13V91.27Z"/><path class="cls-1" d="M304.33,91.27H289.38V93.6h1.47a3.8,3.8,0,0,1,2.69.76,2.94,2.94,0,0,1,.93,3.51s-10.91,24.55-12.84,28.88l-10.58-29a3.8,3.8,0,0,1-.25-1.29,2.65,2.65,0,0,1,1.11-2.17,3.58,3.58,0,0,1,2.37-.69l1.6.07V91.27h-19v2.37l.87-.1a3.93,3.93,0,0,1,2.51.67,7.17,7.17,0,0,1,2.62,3.14l14.91,38h3.95L298.2,98.65c.9-2.16,1.56-3.53,3.15-4.5a3.61,3.61,0,0,1,2-.6l1.28.07V91.27Z"/><path class="cls-1" d="M341.06,91.27H309.93V93.6l2.29.06c1.28.11,2.41.27,3,1.06a2.44,2.44,0,0,1,.51,1.51v33a3.19,3.19,0,0,1-.69,2.55,3.58,3.58,0,0,1-2.62,1l-2.53.39v2.12h34.16l2.24-11.72-2.26-.08-1.18,2.84c-.13.37-1.35,3.56-3.72,5a8.56,8.56,0,0,1-4.72,1.19h-6.16a6,6,0,0,1-3.84-1c-1.41-1.05-1.5-2.38-1.5-4V113.58h5.53a7.53,7.53,0,0,1,4.61,1.22,4.51,4.51,0,0,1,1.5,3l.07,1.45h2.42V105.54h-2.33l-.16,1.34A4.11,4.11,0,0,1,333,110c-.79.64-2.19,1-4.18.93H323v-17h9.25a5.91,5.91,0,0,1,4.23,1.34,6.18,6.18,0,0,1,2,3.59l.12.42s.51,2.39.51,2.39l.06.25h2.3V91.27Z"/><path class="cls-1" d="M352.05,91.27h-.32V93.6l2.3.06c1.23.11,2.4.27,3,1a2.08,2.08,0,0,1,.58,1.52v33.89a2.23,2.23,0,0,1-.61,1.78,3.06,3.06,0,0,1-2.37.88l-.33,0-2.53.33v2.12h18.74v-2.15l-1.59-.07a5.57,5.57,0,0,1-3.29-.94,2.23,2.23,0,0,1-.77-1.92V116.05h5.93l10.95,17.3a4.33,4.33,0,0,0,2.77,1.73l1.8.18h6.29V134l-.15-.09a16.83,16.83,0,0,1-2.6-1.86,18.92,18.92,0,0,1-3.6-4l-9.78-13.19.46-.2a11.21,11.21,0,0,0,3.8-2.22,13.21,13.21,0,0,0,5-9.23c0-.26,0-.52,0-.78a11.12,11.12,0,0,0-3.06-7.67c-3.42-3.5-8.81-3.5-13.14-3.5Zm18.1,2.63c2.34,0,4.24.34,5.88,2,1.48,1.59,2.38,4.58,2.38,7.66a14.51,14.51,0,0,1-.11,1.86c-.37,3.07-1.61,5.44-3.5,6.68-2.09,1.35-3.93,1.41-6.76,1.41h-3.22V93.9Z"/><path class="cls-1" d="M414.77,90.68c-6.42.11-14.38,2.55-15.64,9.07-1.18,5.74,2.54,9.16,6.74,12l8,5.41c4,2.64,5.67,5.11,5.89,8.51.26,4.33-3.06,7.5-8.25,7.89a9.92,9.92,0,0,1-10.64-8.19L400.6,124h-2.38v10.08l.17.09c3.25,1.77,11.53,2.16,13.71,2,7.71-.4,15.34-4.64,15.34-12,0-.16,0-.32,0-.48-.19-4.15-2.09-7.27-6.17-10.12l-12.39-8.75a5.92,5.92,0,0,1-2.62-4.85,6.54,6.54,0,0,1,.23-1.68c.91-2.88,3.52-4.71,7-4.88,3.95-.12,7.29,2.32,8,5.79l.32,1.88,0,.26h2.45l-.07-9.11-.2-.08A25,25,0,0,0,414.77,90.68ZM412.1,136.2Z"/><path class="cls-1" d="M452.73,91.27H434.25V93.6l2.29.06c1.28.11,2.41.27,3,1.06a2,2,0,0,1,.45,1.51v33.89a2.18,2.18,0,0,1-.56,1.78,2.92,2.92,0,0,1-2.29.88l-.34,0-2.59.33v2.12h18.8v-2.11l-1.61-.28-1.12-.14a4.26,4.26,0,0,1-2.21-.63,2.2,2.2,0,0,1-.84-1.92V96.34a2.36,2.36,0,0,1,.45-1.63,3,3,0,0,1,2.53-1l2.8-.13V91.27Z"/><path class="cls-1" d="M498.65,91.27H460.88l-1.72,10.15h2.11l1.12-2,.58-1.1a7,7,0,0,1,2.52-3.14,8.73,8.73,0,0,1,5.1-1.24h5.78v36.16a2.77,2.77,0,0,1-.56,1.79,4.19,4.19,0,0,1-2.69,1l-2.59.26v2.13h18.8v-2.15l-1.65-.07a6,6,0,0,1-3.24-.95,2.09,2.09,0,0,1-1.08-1.91V94h5.91c2,0,3.34.07,4.91,1.06a7.71,7.71,0,0,1,2.64,3.11l.46.79,1.32,2.2h2.16l-1.85-9.85Z"/><path class="cls-1" d="M548.67,91.27H534.49V93.6h1.92a2.89,2.89,0,0,1,2.68,1.21,2.08,2.08,0,0,1,.35,1.15,4.4,4.4,0,0,1-.74,2.11l-9.41,15.84L520.7,97.43a3.87,3.87,0,0,1-.55-1.84,2.15,2.15,0,0,1,.34-1.19c.32-.55,1-.8,2.3-.8h1.73V91.27H506.68V93.6h1.09a5.94,5.94,0,0,1,2.78.9A10.09,10.09,0,0,1,512.88,97s11,19.73,11.46,20.5V129.6a3.17,3.17,0,0,1-.82,2.42,4.31,4.31,0,0,1-3.43,1.08h-1.66v2.16h18.68v-2.12l-2.65-.39a4.11,4.11,0,0,1-2.46-.86,2.61,2.61,0,0,1-.61-2V119.26a5.84,5.84,0,0,1,.31-2.08,5.68,5.68,0,0,1,.93-2s11.11-18.52,11.11-18.52A7.62,7.62,0,0,1,546,94.19,3.79,3.79,0,0,1,548,93.6h1V91.27Z"/><path class="cls-1" d="M573.79,114.09c0,13.87,12.23,22.17,24.07,22.17,13.3,0,25-11,25-23.47,0-13.05-10.05-22.17-24.46-22.17C586.74,90.62,573.79,100.26,573.79,114.09Zm8.46-.83c0-12.38,5.93-20.07,15.48-20.07,10.89,0,16.77,10,16.77,19.37s-2.8,20.77-16.13,20.77C588.87,133.33,582.25,122.76,582.25,113.26Z"/><path class="cls-1" d="M659.63,91.27H628.56V93.6l2.3.06c1.59.07,2.5.39,3,1.06a2.25,2.25,0,0,1,.45,1.51v33.89a2.16,2.16,0,0,1-.55,1.78,3.19,3.19,0,0,1-2.36.88l-.34,0-2.53.33v2.12H647.3v-2.11l-1.54-.28-1.13-.14a4.31,4.31,0,0,1-2.21-.63,2.13,2.13,0,0,1-.83-1.92V114.93h6.29c.81,0,3.29,0,4.67,1.22a4.4,4.4,0,0,1,1.44,3l.16,1.51h2.4V106.89h-2.31l-.25,1.26a4.08,4.08,0,0,1-1.5,3.23c-.44.34-1.6.93-4.28.92h-6.62V93.84h9.25A5.88,5.88,0,0,1,655,95.22a6.66,6.66,0,0,1,2.09,4l.77,2.71H660V91.27Z"/><path class="cls-1" d="M126.09,159.1a21.31,21.31,0,0,0-6.24,15.24c.27,8.6,3.46,14,11,18.53,4.41,2.78,16.46,5.07,26.72,1.92l5.17-1.54V179.56a2.53,2.53,0,0,1,.55-2.07,3.05,3.05,0,0,1,2.25-.81l.39,0,2.52-.33v-2.06H148.36v2.2l2.16.14.95.07c1.49.11,2.9.21,3.51,1a3.67,3.67,0,0,1,.58,2.55v5.18c0,2.69-.35,4.75-1,5.64-1.24,1.86-3.63,2.61-7.75,2.45-12-.4-17.69-6.84-18.45-20.85-.3-5.86,1.44-11,4.89-14.45s8.15-5,14.17-4.66c7.13.25,11.59,3,12.55,7.85l.5,2.43h2.31v-8a2.52,2.52,0,0,0-.59-1.85,3.1,3.1,0,0,0-1.62-1l-1.61-.49a46,46,0,0,0-12.87-1.72A28.45,28.45,0,0,0,126.09,159.1Z"/><path class="cls-1" d="M192.34,151.57H173.85v2.33l2.37.07c1.28.11,2.4.27,3,1.05a2,2,0,0,1,.45,1.51v32.19c0,1.8-.23,3.13-.61,3.47a3.76,3.76,0,0,1-2.64.92l-2.6.33v2.12H207.7l2.1-11.78-2.26-.08-1.11,2.91a10.51,10.51,0,0,1-3.78,4.9c-1.88,1.16-3.41,1.36-5.94,1.36H192a6.53,6.53,0,0,1-4.1-1.1c-.83-.76-1-1.67-1-3.28V156.65a2.33,2.33,0,0,1,.45-1.63,3,3,0,0,1,2.53-1l2.74-.14v-2.32Z"/><path class="cls-1" d="M216.56,174.39c0,13.88,12.24,22.17,24.07,22.17,13.31,0,25-11,25-23.46,0-13.06-10.06-22.18-24.46-22.18C229.52,150.92,216.56,160.56,216.56,174.39Zm8.46-.82c0-12.38,5.94-20.07,15.48-20.07,10.89,0,16.77,10,16.77,19.36s-2.8,20.78-16.12,20.78C231.65,193.64,225,183.06,225,173.57Z"/><path class="cls-1" d="M320.64,151.57H304.27v2.34h1.28a4.73,4.73,0,0,1,3.64,1.09,3.93,3.93,0,0,1,1.38,3.47v20.8a13.42,13.42,0,0,1-3.88,9.63,13.61,13.61,0,0,1-9.93,3.8c-9.1-.12-12.34-6.32-12.34-12.08v-24a2.33,2.33,0,0,1,.45-1.63,3,3,0,0,1,2.53-1l2.74-.14v-2.32H271.33v2.33l2.36.07c1.28.11,2.41.27,3,1.05a2,2,0,0,1,.45,1.51v24.14a14.43,14.43,0,0,0,4.15,10.51c3.37,3.35,8.64,5.18,14.85,5.15,10.54-.06,18.49-7.4,18.49-17.06V158.58a5.44,5.44,0,0,1,1.19-3.42c1.05-1.06,2.17-1.25,4-1.25H321v-2.34Z"/><path class="cls-1" d="M327.14,174.62c0,13.35,10.08,21.65,26.32,21.65a44.94,44.94,0,0,0,15.34-2.67l.14-.06,2.52-9.6h-2.41l-.85,1.89a10.3,10.3,0,0,1-3.38,4.41,15.58,15.58,0,0,1-10.27,3.4c-11.82,0-18.88-7.11-18.88-19,0-6.3,1.73-21,17.79-21,7.16,0,12,2.94,13.05,7.86L367,164h2.3v-9.77l-.15-.1c-4.76-2.9-12.56-3.22-15.7-3.22C338.7,150.92,327.14,161.33,327.14,174.62Z"/><path class="cls-1" d="M407.72,151.57H376.58v2.33l2.3.07c1.28.11,2.41.27,3,1.05a2.49,2.49,0,0,1,.5,1.51v33a3.21,3.21,0,0,1-.68,2.54,3.57,3.57,0,0,1-2.63,1l-2.53.4v2.11h34.17L413,183.84l-2.26-.08-1.17,2.85c-.14.37-1.36,3.55-3.72,4.95a8.56,8.56,0,0,1-4.72,1.19h-6.17a6,6,0,0,1-3.84-1c-1.4-1-1.49-2.38-1.49-4V173.88h5.52a7.55,7.55,0,0,1,4.62,1.22,4.46,4.46,0,0,1,1.49,3l.08,1.44h2.42V165.85h-2.33l-.17,1.33a4.05,4.05,0,0,1-1.55,3.14c-.78.65-2.18,1-4.17.93h-5.91V154.2h9.25a6,6,0,0,1,4.23,1.34,6.12,6.12,0,0,1,2,3.58l.13.44s.51,2.38.51,2.38l.05.25H408V151.57Z"/><path class="cls-1" d="M435.26,151c-6.42.11-14.38,2.55-15.65,9.07-1.17,5.74,2.55,9.17,6.75,12l8,5.4c4,2.64,5.68,5.11,5.9,8.51.25,4.33-3.06,7.5-8.25,7.89a9.92,9.92,0,0,1-10.64-8.19s-.24-1.39-.24-1.39h-2.38v10.08l.16.1c3.26,1.76,11.53,2.15,13.72,2,7.71-.39,15.34-4.64,15.34-12,0-.16,0-.32,0-.48-.18-4.15-2.09-7.27-6.17-10.12l-12.39-8.75a5.92,5.92,0,0,1-2.62-4.85,6.2,6.2,0,0,1,.24-1.68c.91-2.88,3.51-4.71,7-4.88,3.94-.11,7.29,2.32,7.95,5.79l.32,1.88.05.26h2.45l-.07-9.11-.2-.08A25,25,0,0,0,435.26,151Zm-2.67,45.52Z"/><path class="cls-1" d="M493.71,151.57H455.93l-1.71,10.15h2.1l1.12-2,.59-1.09a7,7,0,0,1,2.52-3.15,8.72,8.72,0,0,1,5.09-1.24h5.79v36.17a2.74,2.74,0,0,1-.56,1.78,4.21,4.21,0,0,1-2.69,1l-2.6.26v2.13h18.81v-2.15l-1.65-.07a6,6,0,0,1-3.24-.94,2.11,2.11,0,0,1-1.08-1.91V154.26h5.91c2,0,3.33.07,4.9,1.07a7.57,7.57,0,0,1,2.65,3.1l.46.79,1.31,2.21h2.17L494,151.57Z"/><path class="cls-1" d="M532.75,151.57H501.61v2.33l2.3.07c1.28.11,2.4.27,3,1.05a2.44,2.44,0,0,1,.51,1.51v33a3.17,3.17,0,0,1-.69,2.54,3.54,3.54,0,0,1-2.62,1l-2.53.4v2.11h34.16L538,183.84l-2.26-.08-1.18,2.85c-.13.37-1.34,3.55-3.72,4.95a8.54,8.54,0,0,1-4.72,1.19H520a6,6,0,0,1-3.84-1c-1.4-1-1.5-2.37-1.5-4V173.88h5.53a7.52,7.52,0,0,1,4.61,1.22,4.51,4.51,0,0,1,1.5,3l.08,1.44h2.41V165.85h-2.33l-.16,1.33a4.11,4.11,0,0,1-1.55,3.14c-.78.65-2.19,1-4.18.93h-5.91V154.2h9.26a6,6,0,0,1,4.22,1.34,6.1,6.1,0,0,1,2,3.6l.12.42s.51,2.38.51,2.38l.06.25h2.3V151.57Z"/><path class="cls-1" d="M543.73,151.57h-.32v2.33l2.3.07c1.23.1,2.4.27,3,1a2.1,2.1,0,0,1,.58,1.52v33.9a2.18,2.18,0,0,1-.61,1.77,3,3,0,0,1-2.37.88l-.32,0-2.54.33v2.12h18.74v-2.14l-1.58-.08a5.54,5.54,0,0,1-3.3-.94,2.23,2.23,0,0,1-.77-1.91V176.35h5.93c.19.29,11,17.3,11,17.3a4.25,4.25,0,0,0,2.77,1.73l1.8.18h6.29V194.3l-.15-.09a16.87,16.87,0,0,1-2.59-1.85,19,19,0,0,1-3.61-4l-9.78-13.19.46-.19a11.37,11.37,0,0,0,3.81-2.23,13.18,13.18,0,0,0,5-9.23c0-.26,0-.52,0-.78a11.12,11.12,0,0,0-3-7.66c-3.43-3.51-8.82-3.51-13.15-3.51Zm18.11,2.63c2.34,0,4.23.34,5.87,2s2.38,4.58,2.38,7.67a14.51,14.51,0,0,1-.11,1.86c-.37,3.07-1.61,5.44-3.5,6.67-2.05,1.32-3.92,1.42-6.76,1.42H556.5V154.2Z"/><path class="cls-1" d="M606.46,151c-6.43.11-14.38,2.55-15.65,9.07-1.18,5.74,2.54,9.17,6.75,12l8,5.4c4,2.64,5.67,5.11,5.89,8.51.26,4.33-3.06,7.51-8.24,7.89a9.92,9.92,0,0,1-10.65-8.19s-.24-1.39-.24-1.39H589.9v10.08l.17.1c3.25,1.76,11.53,2.15,13.72,2,7.7-.39,15.33-4.64,15.33-12,0-.16,0-.32,0-.48-.19-4.15-2.09-7.27-6.17-10.12l-12.39-8.75a5.92,5.92,0,0,1-2.62-4.85,6.2,6.2,0,0,1,.24-1.68c.9-2.88,3.51-4.71,7-4.88,4-.11,7.3,2.32,8,5.79l.32,1.88.05.26h2.44l-.06-9.11-.2-.08A25,25,0,0,0,606.46,151Z"/><path class="cls-1" d="M674.73,151.57H656.11v2.32L659,154a2.94,2.94,0,0,1,2.52,1,2.33,2.33,0,0,1,.46,1.64V170H638.57V156.65A2.26,2.26,0,0,1,639,155a3,3,0,0,1,2.53-1l2.94-.14v-2.32H625.54v2.33l2.3.07c1.28.11,2.41.27,3,1.05a2.32,2.32,0,0,1,.44,1.51v33.9a2.15,2.15,0,0,1-.55,1.77,3.13,3.13,0,0,1-2.35.88l-.35,0-2.53.33v2.12h18.87v-2.13l-1.89-.16a5.34,5.34,0,0,1-3.11-.86,2.07,2.07,0,0,1-.84-1.92V173.12H662v17.37a2.08,2.08,0,0,1-.84,1.92,4.06,4.06,0,0,1-2.37.67l-.95.09-1.69.28v2.11H675v-2.12l-2.52-.33-.35,0a3.14,3.14,0,0,1-2.34-.86,2.16,2.16,0,0,1-.57-1.79v-33.9a2,2,0,0,1,.51-1.5c.63-.8,1.73-.95,3-1.07l2-.05h.3v-2.33Z"/><path class="cls-1" d="M700,151.57H681.47v2.33l2.3.07c1.28.11,2.41.27,3,1.05a2,2,0,0,1,.44,1.51v33.9a2.14,2.14,0,0,1-.55,1.77,2.89,2.89,0,0,1-2.29.88l-.34,0-2.6.33v2.12h18.81v-2.11l-1.61-.28-1.12-.14a4.14,4.14,0,0,1-2.22-.63,2.2,2.2,0,0,1-.83-1.91V156.65A2.33,2.33,0,0,1,695,155a3,3,0,0,1,2.53-1l2.8-.14v-2.32Z"/><path class="cls-1" d="M706.32,151.57H706v2.33l2.3.07c1.23.1,2.4.27,3,1a2.12,2.12,0,0,1,.58,1.52v33.9a2.19,2.19,0,0,1-.62,1.77,3,3,0,0,1-2.37.88l-.32,0-2.54.33v2.12h18.75v-2.14l-1.59-.08a5.54,5.54,0,0,1-3.3-.94,2.23,2.23,0,0,1-.77-1.91V176.35H725l11,17.3a4.26,4.26,0,0,0,2.76,1.73l1.81.18h6.29V194.3l-.16-.09a16.87,16.87,0,0,1-2.59-1.85,18.72,18.72,0,0,1-3.61-4l-9.78-13.19.46-.19a11.37,11.37,0,0,0,3.81-2.23,13.18,13.18,0,0,0,5-9.23q0-.39,0-.78a11.13,11.13,0,0,0-3.06-7.66c-3.43-3.51-8.82-3.51-13.14-3.51Zm18.11,2.63c2.34,0,4.23.34,5.87,2s2.39,4.58,2.39,7.66a16.44,16.44,0,0,1-.11,1.86c-.38,3.07-1.62,5.45-3.51,6.68-2.09,1.35-3.93,1.42-6.76,1.42h-3.22V154.2Z"/><path class="cls-1" d="M783.5,151.57H752.37v2.33l2.29.07c1.28.11,2.41.27,3,1.05a2.44,2.44,0,0,1,.51,1.51v33a3.17,3.17,0,0,1-.69,2.54,3.54,3.54,0,0,1-2.62,1l-2.53.4v2.11h34.16l2.24-11.72-2.26-.08-1.18,2.85c-.14.37-1.35,3.55-3.72,4.95a8.54,8.54,0,0,1-4.72,1.19h-6.16a6,6,0,0,1-3.84-1c-1.41-1-1.5-2.37-1.5-4V173.88h5.53a7.52,7.52,0,0,1,4.61,1.22,4.51,4.51,0,0,1,1.5,3l.07,1.44h2.42V165.85h-2.33l-.16,1.33a4.11,4.11,0,0,1-1.55,3.14c-.78.65-2.19,1-4.18.93h-5.91V154.2h9.25a6,6,0,0,1,4.23,1.34,6.19,6.19,0,0,1,2,3.58l.13.44.55,2.63h2.31V151.57Z"/><polygon class="cls-1" points="55.48 40.96 110.95 83.22 110.95 40.6 55.48 0 0 40.6 0 83.22 55.48 40.96"/></g></g></svg>